<svg xmlns="http://www.w3.org/2000/svg" width="28.186" height="14.479" viewBox="0 0 28.186 14.479">
  <g id="Component_512_2" data-name="Component 512 – 2" transform="translate(0.6 0.6)">
    <path id="Path_115018" data-name="Path 115018" d="M0,0H8.983" transform="translate(0 7.629)" fill="none" stroke="#fff" stroke-linecap="round" stroke-width="1.2"/>
    <g id="Message" transform="translate(12.064 0)">
      <path id="Path_445" d="M8.777,0,5.468,2.664a1.725,1.725,0,0,1-2.13,0L0,0" transform="translate(3.068 4.314)" fill="none" stroke="#fff" stroke-linecap="round" stroke-linejoin="round" stroke-width="1.2"/>
      <path id="Rectangle_511" d="M3.792,0h7.314a3.846,3.846,0,0,1,2.778,1.234,3.892,3.892,0,0,1,1.029,2.874V9.172a3.892,3.892,0,0,1-1.029,2.874,3.846,3.846,0,0,1-2.778,1.234H3.792A3.854,3.854,0,0,1,0,9.172V4.107A3.854,3.854,0,0,1,3.792,0Z" transform="translate(0.001 0)" fill="none" stroke="#fff" stroke-linecap="round" stroke-linejoin="round" stroke-width="1.2"/>
    </g>
  </g>
</svg>
