<svg id="Component_574_1" data-name="Component 574 – 1" xmlns="http://www.w3.org/2000/svg" width="75.169" height="18.455" viewBox="0 0 75.169 18.455">
  <path id="Path_111323" data-name="Path 111323" d="M18.455,9.5V9.174A9.174,9.174,0,0,0,9.28,0H9.175A9.174,9.174,0,0,0,0,9.174V9.5a9.175,9.175,0,0,0,9.175,9.175H9.28A9.175,9.175,0,0,0,18.455,9.5" transform="translate(37.354) rotate(90)" fill="#031d44"/>
  <path id="Path_111326" data-name="Path 111326" d="M18.455,9.5V9.174A9.174,9.174,0,0,0,9.28,0H9.175A9.174,9.174,0,0,0,0,9.174V9.5a9.175,9.175,0,0,0,9.175,9.175H9.28A9.175,9.175,0,0,0,18.455,9.5" transform="translate(18.677) rotate(90)" fill="#f3d25e"/>
  <path id="Path_111324" data-name="Path 111324" d="M18.455,9.5V9.174A9.174,9.174,0,0,0,9.28,0H9.175A9.174,9.174,0,0,0,0,9.174V9.5a9.175,9.175,0,0,0,9.175,9.175H9.28A9.175,9.175,0,0,0,18.455,9.5" transform="translate(75.169) rotate(90)" fill="#c4d4e9"/>
  <path id="Path_111327" data-name="Path 111327" d="M18.455,9.5V9.174A9.174,9.174,0,0,0,9.28,0H9.175A9.174,9.174,0,0,0,0,9.174V9.5a9.175,9.175,0,0,0,9.175,9.175H9.28A9.175,9.175,0,0,0,18.455,9.5" transform="translate(56.492) rotate(90)" fill="#1f6fdc"/>
</svg>
