<svg id="Component_549_1" data-name="Component 549 – 1" xmlns="http://www.w3.org/2000/svg" xmlns:xlink="http://www.w3.org/1999/xlink" width="115.442" height="14.481" viewBox="0 0 115.442 14.481">
  <defs>
    <clipPath id="clip-path">
      <rect id="Rectangle_45627" data-name="Rectangle 45627" width="115.442" height="14.481" fill="none"/>
    </clipPath>
  </defs>
  <g id="Group_113070" data-name="Group 113070" clip-path="url(#clip-path)">
    <path id="Path_108959" data-name="Path 108959" d="M72.2,7.493c-.013-.137-.032-.276-.058-.419H66.1V9.161h3.881v.117a2.343,2.343,0,0,1-.292,1.141,3.04,3.04,0,0,1-.819.946A3.962,3.962,0,0,1,67.657,12a4.585,4.585,0,0,1-1.444.224,4.8,4.8,0,0,1-1.921-.39,5.15,5.15,0,0,1-1.6-1.072A4.96,4.96,0,0,1,61.61,9.17a4.81,4.81,0,0,1-.39-1.921,5,5,0,0,1,.371-1.94,4.693,4.693,0,0,1,1.044-1.55,4.878,4.878,0,0,1,1.56-1.034,4.985,4.985,0,0,1,1.941-.371,4.458,4.458,0,0,1,1.288.194,5.589,5.589,0,0,1,1.258.566,6.727,6.727,0,0,1,1.2.936l1.365-1.424a5.088,5.088,0,0,0-1.307-1.209A6.7,6.7,0,0,0,68.154.6,7.05,7.05,0,0,0,66.135.306a7.25,7.25,0,0,0-2.77.527,6.948,6.948,0,0,0-2.252,1.473,6.751,6.751,0,0,0-1.5,2.214,6.944,6.944,0,0,0-.536,2.73,7.06,7.06,0,0,0,.536,2.76,6.744,6.744,0,0,0,1.512,2.233,7.109,7.109,0,0,0,5.032,2.029,6.4,6.4,0,0,0,2.389-.439,5.9,5.9,0,0,0,1.931-1.239,5.709,5.709,0,0,0,1.3-1.9,6.2,6.2,0,0,0,.468-2.447c0-.117,0-.237-.01-.361s-.017-.254-.029-.39" transform="translate(-21.531 -0.112)" fill="#3c3c3b"/>
    <path id="Path_108960" data-name="Path 108960" d="M86.223.49H84.117V14.143h8.5V12.115h-6.4Z" transform="translate(-30.657 -0.179)" fill="#3c3c3b"/>
    <path id="Path_108961" data-name="Path 108961" d="M111.829,2.193A6.406,6.406,0,0,0,109.7.711a6.99,6.99,0,0,0-5.325,0,6.451,6.451,0,0,0-2.126,1.473,6.682,6.682,0,0,0-1.4,2.223,7.652,7.652,0,0,0-.5,2.8,7.647,7.647,0,0,0,.5,2.8,6.679,6.679,0,0,0,1.4,2.224,6.459,6.459,0,0,0,2.126,1.472,6.99,6.99,0,0,0,5.325,0,6.406,6.406,0,0,0,2.126-1.482,6.784,6.784,0,0,0,1.4-2.233,7.587,7.587,0,0,0,.5-2.779,7.592,7.592,0,0,0-.5-2.779,6.791,6.791,0,0,0-1.4-2.233m-.585,6.992a4.936,4.936,0,0,1-.946,1.579,4.212,4.212,0,0,1-1.434,1.044,4.46,4.46,0,0,1-5.09-1.033,4.577,4.577,0,0,1-.946-1.58,5.8,5.8,0,0,1-.332-1.989,5.783,5.783,0,0,1,.332-2,4.61,4.61,0,0,1,.946-1.57,4.556,4.556,0,0,1,5.09-1.034A4.221,4.221,0,0,1,110.3,3.646a4.946,4.946,0,0,1,.946,1.58,5.583,5.583,0,0,1,.341,1.98,5.578,5.578,0,0,1-.341,1.98" transform="translate(-36.574 -0.067)" fill="#3c3c3b"/>
    <path id="Path_108962" data-name="Path 108962" d="M134.875,7.19a3.964,3.964,0,0,0-1.072-.526,2.991,2.991,0,0,0,1.18-.849,2.96,2.96,0,0,0,.614-1.892,3.627,3.627,0,0,0-.458-1.881A2.844,2.844,0,0,0,133.784.88a5.534,5.534,0,0,0-2.2-.39h-5.7V14.143h5.89a6.389,6.389,0,0,0,1.912-.263,4.037,4.037,0,0,0,1.433-.77,3.187,3.187,0,0,0,.9-1.258,4.586,4.586,0,0,0,.3-1.727,3.67,3.67,0,0,0-.381-1.7,3.486,3.486,0,0,0-1.063-1.239m-6.884-4.671h3.237a2.63,2.63,0,0,1,1.678.468,1.621,1.621,0,0,1,.586,1.345,1.7,1.7,0,0,1-.264.936,1.829,1.829,0,0,1-.722.644,2.258,2.258,0,0,1-1.044.234h-3.471Zm5.881,8.669a1.866,1.866,0,0,1-.858.693,3.5,3.5,0,0,1-1.356.234h-3.667V8.174h3.569a3.865,3.865,0,0,1,1.385.224,2,2,0,0,1,.908.654,1.675,1.675,0,0,1,.321,1.033,1.961,1.961,0,0,1-.3,1.1" transform="translate(-45.88 -0.179)" fill="#3c3c3b"/>
    <path id="Path_108963" data-name="Path 108963" d="M149.828.49l-5.285,13.653h2.145l1.291-3.394h5.712l1.287,3.394h2.243L151.974.49Zm-1.077,8.231,1.038-2.73.292-.829q.175-.5.361-1.063l.351-1.073c.02-.061.037-.109.055-.167.005.016.008.024.013.04q.175.536.39,1.18t.38,1.171q.166.526.224.663l1.065,2.808Z" transform="translate(-52.68 -0.179)" fill="#3c3c3b"/>
    <path id="Path_108964" data-name="Path 108964" d="M170.372,12.115V.49h-2.106V14.143h8.5V12.115Z" transform="translate(-61.326 -0.179)" fill="#3c3c3b"/>
    <path id="Path_108965" data-name="Path 108965" d="M7.324,15.857c2.252,0,4.505.009,6.758-.008.431,0,.58.083.52.559a4.256,4.256,0,0,1-4.113,3.742c-3.337.025-6.674,0-10.011.017-.421,0-.47-.163-.465-.514.018-1.084.028-2.17,0-3.253-.013-.444.124-.556.557-.552,2.252.021,4.505.01,6.758.01" transform="translate(-0.003 -5.776)" fill="#051f45"/>
    <path id="Path_108966" data-name="Path 108966" d="M7.295,4.283H.666c-.719,0-.731-.015-.6-.734A4.19,4.19,0,0,1,4.049.037c3.4-.066,6.8-.022,10.193-.037.311,0,.385.1.381.393-.014,1.126-.023,2.252,0,3.377.01.4-.1.526-.515.522-2.272-.02-4.544-.01-6.816-.01" transform="translate(0 0)" fill="#031d44"/>
    <path id="Path_108967" data-name="Path 108967" d="M9.059,12.215c-1.625,0-3.251.016-4.876,0A4.251,4.251,0,0,1,.042,8.444C.007,8.049.077,7.9.521,7.9c3.25.019,6.5-.005,9.752.015A4.273,4.273,0,0,1,14.611,11.7c.05.444-.081.53-.489.526-1.687-.018-3.375-.008-5.063-.008" transform="translate(-0.012 -2.881)" fill="#051f45"/>
    <path id="Path_108968" data-name="Path 108968" d="M27.93,14.239a4.146,4.146,0,0,1-2.818-3.95c0-3.234.008-6.467-.012-9.7,0-.455.1-.6.575-.583,1.028.038,2.06.036,3.089,0,.457-.016.583.1.581.573-.019,4.634-.011,9.268-.011,13.9a3.552,3.552,0,0,1-1.4-.241" transform="translate(-9.148 -0.002)" fill="#1f6fe2"/>
    <path id="Path_108969" data-name="Path 108969" d="M40.63,14.479c-.017-.2,0-9.419-.023-13.823,0-.5.1-.677.636-.654C42.27.047,43.3.029,44.328.008c.379-.008.539.064.536.5-.018,3.293,0,6.585-.016,9.878a4.189,4.189,0,0,1-3.277,3.977,3.261,3.261,0,0,1-.942.12" transform="translate(-14.8 0)" fill="#1f6fe2"/>
    <path id="Path_108970" data-name="Path 108970" d="M37.085,17.408c-1.4.007-2.8-.03-4.195-.022,0,0-.077-4.929,0-7.356a2.047,2.047,0,0,1,2.1-2,2.113,2.113,0,0,1,2.1,2.092c.039,1.606,0,7.282,0,7.282" transform="translate(-11.975 -2.929)" fill="#1f6fe2"/>
  </g>
</svg>
